# xmcd
#
# Track frame offsets: 
#        150
#        18552
#        36159
#        40777
#        60181
#        76009
#        96047
#        111609
#        118320
#        136167
#        164194
#        179854
#
# Disc length: 2563 seconds
#
# Revision: 0
# Processed by: cddbd v1.5.2PL0 Copyright (c) Steve Scherf et al.
# Submitted via: ExactAudioCopyFreeDBPlugin 1.0
#
DISCID=a50a010c
DTITLE=The Spiritualaires of Hurtsbro, Alabama - Singing Songs of Prai
DTITLE=se
DYEAR=2006
DGENRE=Gospel
TTITLE0=I'm Going To Tell On You
TTITLE1=Packing Up Our Clothes
TTITLE2=Spirtulaires Radio Program Introduction
TTITLE3=I've Got Somewhere To Lay My Head
TTITLE4=Come Over Here
TTITLE5=When The Gates Swing Open
TTITLE6=The Lord's Prayer
TTITLE7=Spirtulaires Radio Program Announcements
TTITLE8=Trouble
TTITLE9=I'm On My Way To Heaven Anyhow
TTITLE10=Some Folk Say
TTITLE11=I've Done What You Told Me To
EXTD=
EXTT0=
EXTT1=
EXTT2=
EXTT3=
EXTT4=
EXTT5=
EXTT6=
EXTT7=
EXTT8=
EXTT9=
EXTT10=
EXTT11=
PLAYORDER=
